<svg width="25" height="24" viewBox="0 0 25 24" fill="none" xmlns="http://www.w3.org/2000/svg">
<path d="M21.3353 16V7.99999C21.3349 7.64927 21.2409 7.3048 21.0625 7.00116C20.8842 6.69751 20.6279 6.44536 20.3193 6.26999L13.2076 2.26999C12.8987 2.09446 12.5483 2.00204 12.1916 2.00204C11.8349 2.00204 11.4845 2.09446 11.1756 2.26999L4.06388 6.26999C3.75529 6.44536 3.49898 6.69751 3.32066 7.00116C3.14234 7.3048 3.04828 7.64927 3.04791 7.99999V16C3.04828 16.3507 3.14234 16.6952 3.32066 16.9988C3.49898 17.3025 3.75529 17.5546 4.06388 17.73L11.1756 21.73C11.4845 21.9055 11.8349 21.9979 12.1916 21.9979C12.5483 21.9979 12.8987 21.9055 13.2076 21.73L20.3193 17.73C20.6279 17.5546 20.8842 17.3025 21.0625 16.9988C21.2409 16.6952 21.3349 16.3507 21.3353 16Z" stroke="#338573" stroke-width="2" stroke-linecap="round" stroke-linejoin="round"/>
<path d="M7.61975 4.20999L12.1916 6.80999L16.7634 4.20999" stroke="#338573" stroke-width="2" stroke-linecap="round" stroke-linejoin="round"/>
<path d="M7.61976 19.79V14.6L3.04791 12" stroke="#338573" stroke-width="2" stroke-linecap="round" stroke-linejoin="round"/>
<path d="M21.3353 12L16.7634 14.6V19.79" stroke="#338573" stroke-width="2" stroke-linecap="round" stroke-linejoin="round"/>
<path d="M3.3222 6.95999L12.1916 12.01L21.061 6.95999" stroke="#338573" stroke-width="2" stroke-linecap="round" stroke-linejoin="round"/>
<path d="M12.1916 22.08V12" stroke="#338573" stroke-width="2" stroke-linecap="round" stroke-linejoin="round"/>
</svg>
